<?xml version="1.0" standalone="no"?>
<!DOCTYPE svg PUBLIC "-//W3C//DTD SVG 20010904//EN"
 "http://www.w3.org/TR/2001/REC-SVG-20010904/DTD/svg10.dtd">
<svg version="1.0" xmlns="http://www.w3.org/2000/svg"
 width="628.000000pt" height="353.000000pt" viewBox="0 0 628.000000 353.000000"
 preserveAspectRatio="xMidYMid meet">

<g transform="translate(0.000000,353.000000) scale(0.100000,-0.100000)"
fill="#000000" stroke="none">
<path d="M0 1765 l0 -1765 3140 0 3140 0 0 1765 0 1765 -3140 0 -3140 0 0
-1765z m1740 1229 c129 -17 225 -42 353 -93 87 -35 179 -80 187 -91 3 -4 37
-27 75 -50 64 -39 163 -111 304 -220 63 -49 92 -75 264 -235 70 -66 145 -135
166 -152 l38 -33 40 35 c23 19 46 35 52 35 5 0 14 6 18 13 13 21 218 208 303
277 30 25 57 47 60 50 12 14 171 131 235 172 379 248 610 318 1000 305 166 -5
303 -28 420 -68 118 -41 298 -151 409 -251 154 -137 294 -401 352 -665 23
-103 22 -304 -1 -438 -72 -416 -365 -774 -765 -935 -376 -152 -755 -144 -1129
24 -193 86 -414 236 -621 421 -62 55 -264 241 -317 291 l-43 41 -47 -41 c-26
-22 -119 -108 -208 -189 -318 -295 -622 -495 -893 -588 -198 -68 -515 -90
-733 -50 -273 50 -491 160 -676 342 -154 152 -269 368 -318 600 -25 119 -38
322 -25 415 49 370 273 696 623 908 129 79 342 154 507 179 65 10 260 5 370
-9z"/>
<path d="M1385 2445 c-153 -34 -252 -90 -365 -204 -127 -128 -175 -236 -195
-437 -11 -118 47 -301 130 -406 188 -240 513 -318 866 -209 91 29 280 126 397
205 102 69 365 271 447 344 l48 43 -34 35 c-19 20 -110 104 -204 188 -350 313
-495 394 -785 441 -114 18 -223 18 -305 0z m289 -464 c30 -20 66 -68 66 -88 0
-7 -11 -13 -25 -13 -17 0 -29 9 -40 29 -28 55 -120 65 -162 18 -33 -35 -43
-63 -43 -112 0 -88 42 -145 108 -145 46 0 87 24 102 60 9 21 19 30 36 30 44 0
18 -74 -38 -108 -69 -42 -145 -40 -198 5 -47 39 -64 79 -64 154 0 79 33 146
86 172 46 23 136 22 172 -2z m174 -168 l2 -183 -25 0 -25 0 0 186 0 185 23 -3
c22 -3 22 -5 25 -185z"/>
<path d="M4655 2454 c-11 -2 -74 -14 -140 -26 -163 -29 -304 -95 -504 -236
-130 -92 -441 -366 -441 -388 0 -15 310 -290 435 -385 179 -137 343 -219 540
-269 60 -15 270 -12 342 5 224 53 402 187 493 370 59 119 73 194 61 319 -17
183 -69 294 -201 427 -118 120 -264 178 -460 184 -58 2 -114 2 -125 -1z m-97
-474 c29 -18 72 -73 72 -92 0 -5 -12 -8 -27 -8 -20 1 -34 10 -48 33 -25 39
-80 55 -127 36 -47 -19 -68 -62 -68 -142 0 -65 2 -71 34 -103 46 -46 104 -48
147 -5 16 16 29 37 29 45 0 11 9 16 30 16 35 0 35 0 16 -43 -19 -45 -54 -74
-108 -88 -87 -24 -170 22 -196 109 -28 94 0 195 67 239 45 30 132 32 179 3z
m345 -7 c43 -25 77 -94 77 -158 0 -74 -33 -134 -90 -162 -35 -18 -61 -23 -127
-23 l-83 0 0 178 c0 98 3 182 8 186 14 15 181 -2 215 -21z"/>
<path d="M4732 1813 l3 -138 42 -3 c54 -4 108 19 126 55 39 74 29 153 -24 198
-25 21 -41 25 -90 25 l-60 0 3 -137z"/>
</g>
</svg>
