<?xml version="1.0" standalone="no"?>
<!DOCTYPE svg PUBLIC "-//W3C//DTD SVG 20010904//EN"
 "http://www.w3.org/TR/2001/REC-SVG-20010904/DTD/svg10.dtd">
<svg version="1.0" xmlns="http://www.w3.org/2000/svg"
 width="225.000000pt" height="225.000000pt" viewBox="0 0 225.000000 225.000000"
 preserveAspectRatio="xMidYMid meet">

<g transform="translate(0.000000,225.000000) scale(0.100000,-0.100000)"
fill="#000000" stroke="none">
<path d="M0 1125 l0 -1125 1125 0 1125 0 0 1125 0 1125 -1125 0 -1125 0 0
-1125z m764 704 c19 -23 45 -70 56 -105 21 -61 49 -257 50 -340 l0 -41 203 -6
c215 -6 266 -15 373 -64 55 -25 62 -26 123 -15 76 13 108 2 139 -50 42 -70 32
-182 -17 -195 -23 -6 -38 -75 -26 -120 4 -16 11 -68 15 -118 4 -49 13 -110 19
-134 9 -34 9 -52 -1 -80 -7 -20 -11 -54 -9 -77 1 -23 -2 -60 -9 -83 -10 -39
-12 -41 -51 -41 l-40 0 20 26 c17 21 21 41 21 95 0 69 0 69 -48 120 l-49 51
-6 -46 c-7 -46 -48 -139 -67 -151 -5 -3 -10 -22 -10 -41 0 -33 -1 -34 -40 -34
-44 0 -55 21 -21 39 10 6 28 34 41 62 30 71 24 135 -17 187 -39 48 -53 76 -53
103 0 18 -4 20 -27 15 -96 -21 -184 -27 -238 -17 -31 6 -61 8 -66 5 -5 -3 -9
-35 -9 -72 -1 -37 -7 -85 -15 -107 -8 -22 -15 -71 -15 -110 0 -95 -14 -119
-68 -123 -23 -2 -42 0 -42 4 0 4 12 23 26 42 24 31 26 40 21 99 -4 35 -9 69
-13 74 -4 6 -19 -26 -33 -72 -37 -112 -48 -129 -88 -129 -34 0 -47 25 -19 36
17 7 45 73 47 111 1 16 -2 95 -6 176 -7 133 -10 149 -28 159 -37 20 -109 92
-128 130 -13 24 -19 58 -19 98 0 37 -6 74 -16 93 -11 21 -20 80 -27 183 -10
134 -9 156 6 196 23 59 22 65 -13 73 -42 9 -90 52 -90 80 0 28 15 41 61 49 50
9 63 27 57 81 -6 49 -3 52 30 29 21 -14 22 -14 22 6 0 19 1 20 29 6 16 -9 45
-34 65 -57z"/>
</g>
</svg>
